<?xml version="1.0" ?><svg id="outline" viewBox="0 0 340 340" xmlns="http://www.w3.org/2000/svg"><title/><path d="M304.2,155.719a9.64,9.64,0,0,0-1.3-4.634c-2.3-4.007-7.36-6.557-15.028-7.58-4.437-.592-8.609-1.317-12.4-2.155a137.017,137.017,0,0,0-35.423-3.158,284.019,284.019,0,0,0-29.9,2.712c-2.1.319-4.539.708-7.243,1.141-20.08,3.206-60.933,9.727-86.308,4.7-3.447-6.508-4.041-12.323-1.763-17.3,4.946-10.809,21.692-15.873,27.755-17.383,7.177,10.965,16.3,17.713,27.138,20.069,20.159,4.381,38.727-8.1,39.508-8.632a3.383,3.383,0,0,0-1.908-6.175,10.625,10.625,0,0,1-5.129-1.747,21.984,21.984,0,0,1-7.991-8.459C187.3,94.39,177.328,89.645,171.6,87.907c11.658-27.923-3.5-46.174-4.183-46.971l-.093-.1c-3.656-3.938-1.6-11.077-1.581-11.137a3.383,3.383,0,0,0-4.7-4.036c-16.1,7.707-25.687,22.065-27.729,41.52a83.585,83.585,0,0,0,.775,22.151,131.876,131.876,0,0,0-23.3.5c-3.058.3-61.112,6.524-86.878,52.407-11.34,20.194-12.4,44.439-2.838,64.854,7.8,16.656,20.695,29.473,38.344,38.165a69.229,69.229,0,0,0-12.539,18.548c-10.919,23.656-34,20.185-34.97,20.026a3.383,3.383,0,0,0-2.889,5.793C19.991,300.007,33.988,306.122,47.6,305.16c25.828-1.825,46.969-24.137,54.854-33.739a84.76,84.76,0,0,1,10.773-11.061,3.428,3.428,0,0,0,.443.015c16.419-1.047,37.476.09,37.636.1.556.039,1.1.066,1.654.1a51.054,51.054,0,0,0-15.205,17.041c-5.433,9.747-19.353,30.1-40.89,30.245a27.474,27.474,0,0,0,10.678-25.518,3.383,3.383,0,1,0-6.724.744A21.386,21.386,0,0,1,97.485,297.5a22.812,22.812,0,0,1-12.517,8.883,3.383,3.383,0,0,0-.211,6.567,44.765,44.765,0,0,0,12.092,1.719c24.985,0,40.714-22.814,46.816-33.763a43.734,43.734,0,0,1,14.962-15.987,50.813,50.813,0,0,1,7.436-3.779c.04-.017.073-.042.112-.06,1.058.013,2.117.028,3.163.028,68.594,0,110.061-28.357,125.439-41.345a20.312,20.312,0,0,1,13.083-4.8h8.375a17.564,17.564,0,0,0,9.89-2.89c7.458-5.036,6.423-13.159,4.585-17.457C330.838,189.445,330.016,165.153,304.2,155.719ZM97.226,267.129c-5.714,6.957-26.208,29.779-50.051,31.28-9.216.58-18.083-2.083-26.463-7.926,9.673-1.145,24.089-6.03,32.337-23.9.091-.208,9.305-20.882,23.729-24.488a3.383,3.383,0,0,0-1.64-6.564A29.665,29.665,0,0,0,65,240.411c-17.575-8.008-30.3-20.169-37.8-36.185-8.64-18.443-7.664-40.376,2.61-58.671,24.145-43,81.1-48.936,81.672-48.99.015,0,.028-.007.043-.009s.029,0,.043,0c.144-.017,14.418-1.706,26.286-.009a3.386,3.386,0,0,0,3.749-4.215,76.3,76.3,0,0,1-1.543-24.638c1.59-14.726,7.752-25.724,18.345-32.783a15.928,15.928,0,0,0,3.89,10.454c.971,1.18,14.072,17.867,1.46,43.442a3.382,3.382,0,0,0,2.727,4.865c.134.012,13.481,1.394,21.784,16.678a28.747,28.747,0,0,0,10.477,11.044c.036.02.072.042.108.064-6.513,2.975-17.038,6.4-27.728,4.056-9.6-2.1-17.692-8.5-24.048-19.028a3.384,3.384,0,0,0-3.521-1.575c-1.112.208-27.345,5.312-34.862,21.706-2.5,5.463-2.652,11.431-.468,17.81a25.294,25.294,0,0,1-9.186-5.591,17.9,17.9,0,0,1-4.386-6.926,3.382,3.382,0,1,0-6.427,2.108,24.56,24.56,0,0,0,5.992,9.563c19.288,19.593,78.14,10.194,109.758,5.145,2.683-.429,5.1-.815,7.189-1.131a277.388,277.388,0,0,1,29.176-2.642,130.224,130.224,0,0,1,33.671,3c3.977.879,8.339,1.639,12.965,2.256,7.065.942,8.989,2.673,10.45,5.469a22.858,22.858,0,0,1-4.892,1,33.665,33.665,0,0,1-8.087-.188,93.973,93.973,0,0,0-51.725,8.216,84,84,0,0,0-28.856,23.113c-7.346,9.024-27.8,30.042-58.984,30.291a3.383,3.383,0,0,0,.027,6.765h.028c34.057-.271,56.226-23.018,64.175-32.785a77.294,77.294,0,0,1,26.532-21.281,86.971,86.971,0,0,1,47.9-7.614,40.517,40.517,0,0,0,9.717.209,27.126,27.126,0,0,0,7.459-1.738c16.518,5.531,21.386,17.8,22.758,25.82a37.256,37.256,0,0,0-19.856-6.383h-.04c-37.562-3.274-68.881,25.392-71.3,27.667-27.957,22.505-73.5,28.2-73.954,28.256-.066.008-.134.019-.2.03l-23.585,4.273c-1.268.192-11.494,2.042-25.171,13.423A90.893,90.893,0,0,0,97.226,267.129ZM290.27,214.716a152.3,152.3,0,0,1-29.525,19.147,73.6,73.6,0,0,0,6.813-14.106,3.382,3.382,0,1,0-6.352-2.327c-6.8,18.567-15.813,23.215-16.039,23.327-.03.014-.054.035-.083.049a190.14,190.14,0,0,1-18.96,6.222,52.259,52.259,0,0,0,9.113-17.226c5.911-18.117,12.3-24.257,13.244-25.09a109.746,109.746,0,0,1,23.567-12.266,57.143,57.143,0,0,0-5.282,9.444,3.29,3.29,0,0,0,1.7,4.471,3.916,3.916,0,0,0,4.472-1.7c5.678-12.637,11.89-15.561,12.887-15.963a65.368,65.368,0,0,1,17.321-.836c.123.011.257.014.382.013l.091,0a39.875,39.875,0,0,0-4.712,11.023A40.973,40.973,0,0,1,290.27,214.716Zm-98.051,38.5a31.906,31.906,0,0,0,5.089-8.106c.016-.038.033-.078.048-.116.034-.085,3.293-8.214,7.9-13.332a128.089,128.089,0,0,0,27.695-14.889,116.442,116.442,0,0,0-4.144,10.927c-6.006,18.413-16.84,22.456-17.971,22.833C204.935,251.654,198.738,252.571,192.219,253.219Zm-69.05.007c7.407-4.389,12.227-5.177,12.381-5.2.023,0,.044-.013.067-.016s.056,0,.085-.008l21.58-3.91a29.707,29.707,0,0,1-8.687,9.481C143.632,253.36,133.508,253.019,123.169,253.226Zm35.1.862a35.622,35.622,0,0,0,7.12-11.287,211.393,211.393,0,0,0,29-7.2,66.371,66.371,0,0,0-3.3,6.846c-3.538,8.014-9.228,10.95-10.8,11.633C173.27,254.4,165.934,254.429,158.267,254.088Zm164.071-47.616a10.841,10.841,0,0,1-6.1,1.731H307.86a26.811,26.811,0,0,0-5.554.6,45.254,45.254,0,0,0,3.124-8.117c1.9-6.9,4.566-10.33,5.728-11.572a29.389,29.389,0,0,1,13.305,8.1C325.061,198.609,326.749,203.493,322.338,206.472Z"/><path d="M91.009,121.4a3.378,3.378,0,0,0,4.331-2.03q.29-.8.625-1.585a3.382,3.382,0,1,0-6.225-2.648c-.272.639-.527,1.285-.761,1.932A3.382,3.382,0,0,0,91.009,121.4Z"/><path d="M179.37,188.269a3.358,3.358,0,0,0,1.974-.638l3.236-2.33a3.383,3.383,0,0,0-3.955-5.489l-3.235,2.33a3.382,3.382,0,0,0,1.98,6.127Z"/><circle cx="121.779" cy="182.556" r="3.383"/><path d="M85.336,211.875a3.383,3.383,0,1,0,3.7,3.035A3.383,3.383,0,0,0,85.336,211.875Z"/><path d="M67.926,172.773a3.383,3.383,0,1,0,3.7,3.035A3.382,3.382,0,0,0,67.926,172.773Z"/></svg>